<?xml version="1.0" encoding="UTF-8"?>
<svg id="Layer_1" xmlns="http://www.w3.org/2000/svg" version="1.1" viewBox="0 0 1000 1000">
  <!-- Generator: Adobe Illustrator 30.6.0, SVG Export Plug-In . SVG Version: 2.1.4 Build 109)  -->
  <defs>
    <style>
      .st0 {
        fill: #f2d718;
      }

      .st1 {
        fill: #a1abbb;
      }

      .st2 {
        fill: #fff;
      }

      .st3 {
        fill: #11385a;
      }

      .st4 {
        fill: #7988a0;
      }

      .st5 {
        fill: #c8ced7;
      }
    </style>
  </defs>
  <rect class="st2" width="1000" height="1000"/>
  <g>
    <g>
      <path class="st5" d="M555.22,359.08c.05.82-.24,1.86.74,2.23,5.53,18.83,7.98,39.15,13.38,57.98l-1.49.74c-4.41-16.79-11.4-38.69-12.64-55.75-.06-.8.25-1.88-.74-2.23-.02-.24,0-.5,0-.74,0-1.19-.43-3.1.74-3.72.05.49-.03,1,0,1.49Z"/>
      <path class="st5" d="M532.18,330.84c.09,1.14-.48,2.5.73,2.22l.75-1.48c-2.66,6.99-4.84,13.11-9.05,19.57-1.24,1.9-11.99,15.7-13.99,13.88l12.2-15.67c3.11-5.99,6.88-12.27,9.35-18.53Z"/>
      <path class="st1" d="M552.99,325.63l-3.72,1.11c1.32,10.22,4.86,20.7,5.95,30.86-1.17.62-.74,2.53-.74,3.72l-6.69-34.94c2.37-2.54,3.47-.94,5.2-.74Z"/>
      <path class="st1" d="M445.21,399.97c-.03-1.23.03-2.48,0-3.71h-.73c.18,1.58-.7,4.08.74,5.2-.16,8.35-.98,17.99-2.97,26.02.41-4.16.52-8.46.74-12.64.01-.25,0-.5,0-.74,1.43-1.12.56-3.62.74-5.2h-.73c-.04,1.23.03,2.48,0,3.71-1.39-.77-.66-2.67-.53-3.86.38-3.53,1.54-19.93,3.51-21.41,0,4.04,1.27,8.6-.74,12.64Z"/>
      <path class="st1" d="M569.35,499.58c.03,2.45-.48,4.86,0,8.18-1.06-1.33-2.23-6.3-2.23-7.81v-18.58c0-.18.73-3.56,1.48-3.34.38,7.2.66,14.34.75,21.55Z"/>
      <path class="st5" d="M399.12,350.91v.74l-5.95,10.41c.43-1.37.47-2.93,1.47-4.1l-1.47.38c2.48-4.46,2.73-4.25,5.95-7.43Z"/>
      <path class="st1" d="M578.27,465.38c-1.32-3.02-3.69-6.29-3.71-9.66,2.01-.44,1.27.6,1.84,1.47,1.45,2.23,2.12,4.53,3.36,6.7l-1.48-.74v2.23Z"/>
      <path class="st1" d="M438.52,444.57c1.35-4.88,1.24-10.3,3.72-14.87-.54,4.7-1.29,10.86-3.72,14.87Z"/>
      <path class="st5" d="M569.35,425.24c-1.45-1.16-1.1-3.01-1.49-4.46,1.45,1.16,1.11,3,1.49,4.46Z"/>
      <path class="st1" d="M580.5,470.59l-.74-1.49c.15.34.48.9.74,1.49Z"/>
      <path class="st1" d="M581.99,473.56l-1.49-2.23c.06.13.86.79,1.49,2.23Z"/>
      <path class="st1" d="M586.45,482.48c-2.06-.96-2.22-3.41-2.97-5.2,1.36,1.39,2.17,3.45,2.97,5.2Z"/>
      <path class="st1" d="M579.01,466.87l-.74-.74c.05.12.56.33.74.74Z"/>
      <path class="st1" d="M579.76,468.36l-.74-.74s.52.23.74.74Z"/>
      <path class="st1" d="M582.73,475.05l-.74-.74c.05.11.57.33.74.74Z"/>
      <path class="st1" d="M583.47,476.53l-.74-.74c.02.06.54.24.74.74Z"/>
      <path class="st5" d="M475.68,357.6h-1.49c-7.79-11.07-10.07-23.32-8.08-36.7.17-1.14.75-6.38,1.76-6.4,1.54-.03.62,2.23.6,2.8-.67,14.31.69,27.4,7.21,40.3Z"/>
      <path class="st4" d="M445.95,387.33c0-1.52-.6-2.85-.59-4.08.02-3.06.8-10.28,1.34-13.39.22-1.28.81-2.08,2.22-1.86l-1.44,18.9c-.14.89-1.29.25-1.53.43Z"/>
      <path class="st4" d="M519.54,289.96c1.39,1.09-1,1.62-1.45,1.86-5.21,2.83-13.6,4.8-19.36,3.33l20.81-5.19Z"/>
      <path class="st3" d="M393.17,358.34c-.79,1.41-1.07,4.2-2.97,3.72-2.87-29.93-14.01-58.71-15.65-88.8-1.25-22.94,1.58-54.19,9.88-75.67,1.48-3.83,2.92-9.37,7.08-10.77,9.2-3.09,35.68,3.51,45.35,7.03,12.58,4.58,22.65,11.68,33.27,19.57l4.69-4.99c2.24-5.75,4.05-9.93,10.9-10.66,28.13-3.01,57.31,8.71,61.99,39.12.63,4.13.18,16.62,1.98,18.83,1.82,2.22,4.2,1.66,4.08,6.32-.07,2.51-3.59,14.85-5.21,16.42-4.12,4.02-9.35-1.3-10.84,3.28-1.9,5.83.29,22.61-.35,30.13-.49,5.85-3.02,13.46-5.19,18.97-2.47,6.26-6.24,12.53-9.35,18.53l-12.2,15.67c2,1.82,12.75-11.98,13.99-13.88,4.21-6.46,6.39-12.57,9.05-19.57,1.39-3.64,3.25-7.2,3.72-11.15,2.1-.18,2.89,2.44,4.51,3.29,1.86.97,4.77.37,5.89,2.65l6.69,34.94c0,.25-.02.5,0,.74.05.82-.24,1.85.74,2.23,1.24,17.06,8.23,38.96,12.64,55.75.06.23-.06.51,0,.74.38,1.45.04,3.3,1.49,4.46,3.6,13.79,10.39,24.3,21.46,33.24-.64,1.77-4.56,12.43-5.11,12.85-1.43,1.08-5.26-6.26-5.94-7.43-1.24-2.17-1.91-4.47-3.36-6.7-.57-.88.18-1.91-1.84-1.47.02,3.37,2.39,6.64,3.71,9.66.09.21-.09.54,0,.74l.74.74c.09.21-.09.54,0,.74l.74.74c.09.21-.09.53,0,.74l.74,1.49c.09.21-.09.54,0,.74l1.49,2.23c.09.21-.09.53,0,.74l.74.74c.09.21-.09.53,0,.74l.74.74c.09.21-.09.53,0,.74.76,1.8.91,4.25,2.97,5.2,5.78,12.7,14.27,32.89-6.69,35.68,1.36-3.3,3.32-6.33,3.72-10.03.38-3.5.25-8.55-1.87-11.52-.66,17.21-7.24,21.8-12.26,2.97-.09-7.22-.37-14.36-.75-21.55-.75-.22-1.48,3.16-1.48,3.34v18.58c0,1.5,1.17,6.48,2.23,7.81,1.47,10.24,4.5,19.59,2.97,30.48-14.58-3.93-29.16-7.93-44.24-9.66-35.45-4.06-55.78,5.53-88.54,8.82-2.56.26-5.16.02-7.72.09-1.26-1.28,7.75-28.33,10.04-30.48,4.52-4.24,3.91,6.93,3.71,8.91,2.76-3.15,4.65-7.56,6.45-11.39,4.4-9.33,10.18-24.14,11.01-34.34.07-.87.62-4.07-.72-4.07-3.53,13-6.1,27.39-13.75,38.62-2.31.19-12.55-16.02-12.28-18.88.14-1.51,6.67-9.67,8.04-12.08,4.23-7.46,7.8-16.86,8.31-25.5l-8.63,22.2c-2.41,4.53-4.81,8.67-8.83,11.98-2.02-6.24-4.34-10.61-10.76-13.01,6.36-6.58,11.66-16.03,14.11-24.9,2.43-4.01,3.18-10.17,3.72-14.87.08-.73-.07-1.5,0-2.23,1.99-8.02,2.82-17.66,2.97-26.02,0-.49.01-.99,0-1.49,2.01-4.04.74-8.6.74-12.64.23-.18,1.39.46,1.53-.43l1.44-18.9c-1.42-.23-2,.58-2.22,1.86-.54,3.11-1.32,10.33-1.34,13.39,0,1.23.6,2.56.59,4.08-1.97,1.48-3.13,17.88-3.51,21.41-.13,1.19-.85,3.09.53,3.86-.01.49.02.99,0,1.49,0,.25.01.5,0,.74-1.67.47-1.32,1.99-1.62,3.21-2.57,10.31-5.34,20.81-10.89,29.99-1.62,2.69-3.04,6.55-5.47,2.98-4.47-6.57-10.92-15.59-14.73-22.07s-9.42-16.95-11.89-24.53c-2.2-6.76-7.53-32.82-6.64-38.99.21-1.44,1.09-2.28,1.44-3.38l5.95-10.41,5.19-4.84c-3.4-.29-4.22,3.14-5.19,4.1-3.21,3.18-3.47,2.98-5.95,7.43ZM465.87,312.06c.25-.16.37-1.36.88-1.64,1.56-.83,3.08.19,4.41-1.57.84-1.11,3.66-11.1,3.4-12.3-.57-2.62-6.37-4.55-8.58-6.94-3.39-3.67-4.05-9.35-4.42-14.16-.24-3.15.7-10.82-.37-13.01-.68-1.38-17.04-12.04-18.22-11.14,10.94,10.54,13.17,22.73,6.3,36.43,6.3,5.04,12.2,11.13,14.18,19.28.56,2.29-.53,6.88,2.41,5.05ZM519.54,289.96l-20.81,5.19c5.76,1.47,14.14-.5,19.36-3.33.44-.24,2.84-.77,1.45-1.86ZM474.2,357.6c1.04,1.48,1.63,3.72,3.71,4.46.8-2.32-1.8-3.63-2.22-4.46-6.52-12.9-7.88-25.99-7.21-40.3.03-.56.94-2.83-.6-2.8-1.02.02-1.59,5.26-1.76,6.4-1.99,13.38.29,25.63,8.08,36.7ZM453.38,322.66c-4.12.51-1.54,7.5-2.22,10.4.95,1.26,1.35-.09,1.48-1.11.38-3,.5-6.27.75-9.29Z"/>
      <path class="st4" d="M453.38,322.66c-.24,3.03-.37,6.29-.75,9.29-.13,1.02-.53,2.36-1.48,1.11.68-2.9-1.9-9.89,2.22-10.4Z"/>
      <path class="st1" d="M475.68,357.6c.42.83,3.02,2.14,2.22,4.46-2.08-.74-2.67-2.98-3.71-4.46h1.49Z"/>
      <path class="st4" d="M399.12,351.65v-.74c.97-.96,1.78-4.39,5.19-4.1l-5.19,4.84Z"/>
      <path class="st3" d="M552.99,325.63c2.99.34,12.82-.16,8.18,4.45.35-.02.78.13,1.11,0,2.55-1.03,10-9.24,13.53-11.75,14.64-10.42,36.21-15.42,53.02-7.93-3.57,5.28-6.85,10.6-9.66,16.34-.16.5.71.54,1.1.36,2.74-1.24,15.7-24.89,23.65-29.87,11.47-7.19,35.01-7.17,36.21,10.55,3.91-1.53-2.58-9.69-1.49-11.15,5.98,2.79,12.77,3.6,19.32,3.71.14-1.86.18-1.27-1.11-1.47-13.06-1.94-19.8-3.3-23.95-16.95-4.81-15.83-4.9-34.4-17.25-46.73l5.13-5.85c-3.1.65-5.48,3.31-8.9,2.6,1.83-3.14,5.67-5.84,5.94-9.66-3.63,2.75-4.26,8.69-10.1,8.89-4.42.15-5.1-4.44-7.72-6.66-.35,5.21,7.96,9.35.27,13.28-5.49,2.81-8.72-.77-10.48-5.69-1.07-2.98-.54-8.21-4.66-9.08-.19,6.3,4.01,10.76,6.69,15.96-3.81,3.35-8.08,1.78-10.04-2.58-1.35-2.99-.26-6.4-2.59-8.18.05,2.49-.3,4.98.34,7.46.94,3.61,6.08,6.47,6.93,10.17,1.85,8.01-7.28,4.81-10.98.56-3.93-4.52-2.84-8.21-4.49-13.73-1.97.63.21,4.04-.11,5.43-.82,3.55-7.81,2.03-9.17-.98-2.15-4.78.33-19.09,4.46-23.02s22.99-7.77,29.22-8.7c25.47-3.78,24.82,3.59,41.01,17.99,9.59,8.53,21.28,15.23,30.84,23.43,8.97,7.7,30.87,31.64,30.87,43.46v13.38c0,.17-1.73,4.94.73,2.6.78-.75,3.09-8.72,2.99-10.4,3.9,1.11,5.45,8.4,4.05,11.86-1.18,2.93-12.87,12.84-16.02,15.2-3.93,2.96-11.01,6.14-14.09,8.95-4.23,3.85-9.05,14.18-13.37,19.34-13.17,15.73-35.25,22.53-55.32,23.47-1.76.08-8.14-.78-8.61-.45-1.6,1.14-.03,3.69.02,5.26.23,6.42.26,11.6-2.57,17.49-1.93,4.02-5.91,7.41-7.09,11.87-.94.07-1.66.28-2.23,1.09-6.13,7.22-11.46,15.29-17.09,22.7-3.62,4.76-7.89,9.15-11.45,14.19-1.02,1.45-4.56,8.49-4.99,8.76-2.26,1.42-8.1-5.22-9.56-6.99-6.4-7.77-11.38-19.69-14.15-29.34-5.4-18.83-7.85-39.15-13.38-57.98-.2-.67.26-1.72-.74-2.23-.03-.49.05-1,0-1.49-1.09-10.16-4.63-20.63-5.95-30.86l3.72-1.11ZM658.18,220.82v.74c.48-.25.48-.5,0-.74Z"/>
      <path class="st1" d="M555.22,364.29c-.98-.38-.69-1.41-.74-2.23.99.35.69,1.43.74,2.23Z"/>
      <path class="st1" d="M555.97,361.31c-.98-.37-.7-1.41-.74-2.23,1,.51.55,1.56.74,2.23Z"/>
      <g>
        <path class="st0" d="M398.38,404.43c2.47,7.58,7.91,17.76,11.89,24.53-20.32,8.69-44.09,23-58.36,40.13-27.22,32.68,12.03,62.86,38.54,77.45,4.79,2.63,10.95,4.37,14.62,8.04-29.84-5.22-56.48-15.57-81.26-32.84-18.93-13.2-34.27-25.02-31.72-50.78,1.66-16.74,22.44-32.11,35.92-39.9,21.75-12.58,46.22-20.13,70.38-26.63Z"/>
        <path class="st0" d="M628.82,408.89c1.67-.13,6.05,1.47,8,2.03,25.58,7.36,71.56,27.28,81.56,53.73,10.72,28.38-15.05,47.47-35.65,60.96-23.05,15.1-48.33,24.08-75.47,28.96,2.49-3.15,7.45-4.31,11.17-6.29,22.78-12.19,58.73-35.78,49.25-66.38-5.12-16.52-32.46-35.79-47.28-44.15-3.44-1.94-7.08-4.17-10.91-5.08,5.64-7.41,10.97-15.48,17.09-22.7.57-.81,1.29-1.02,2.23-1.09Z"/>
      </g>
    </g>
    <g>
      <path class="st3" d="M672.68,606.62v86.23l2.1-1.25c21.82-28.25,42.7-57.26,65.18-84.98h68.76l-78.65,99.25,83.11,105.18h-72.48c-.4,0-1.52-.87-1.88-1.31l-64.04-85.15-2.1-1.25v87.72h-60.21v-204.42h60.21Z"/>
      <g>
        <path class="st3" d="M518.06,720.36v-113.73h60.21v204.42h-59.84c-1.25,0-3.13-3.16-3.95-4.23-26.13-34.03-48.8-72.33-74.6-106.78l-2.11-1.24v112.25h-60.21v-204.42h59.84l3.67,3.76,74.88,108.73,2.11,1.24Z"/>
        <path class="st3" d="M187.26,737.45h58.35c1.03,0,1.8,8.95,2.38,11,.85,3,2.73,6.95,5.06,9.06,6.38,5.78,20.16,5.8,25.04-1.71.87-1.33,3.57-7.87,3.57-9.06v-140.12h59.84c1.11,1.31,1.07,4.39,1.15,6.28,1.38,34.45-.17,69.69-.81,104.07-.32,17.48,1.81,34.77-3.31,51.7-18.92,62.64-127.97,58.68-147.58-1.85-2.87-8.86-5.11-20.21-3.7-29.37Z"/>
      </g>
    </g>
  </g>
</svg>