<?xml version="1.0" encoding="UTF-8"?>
<svg id="Layer_1" xmlns="http://www.w3.org/2000/svg" version="1.1" viewBox="0 0 1051.64 574.9">
  <!-- Generator: Adobe Illustrator 30.6.0, SVG Export Plug-In . SVG Version: 2.1.4 Build 109)  -->
  <defs>
    <style>
      .st0 {
        fill: #ffce00;
      }

      .st1 {
        fill: #082d4c;
      }
    </style>
  </defs>
  <rect class="st0" x="971.89" y="228.54" width="79.73" height="76.15"/>
  <rect class="st0" x=".54" y="446.82" width="67.65" height="68.5" transform="translate(-446.71 515.27) rotate(-89.98)"/>
  <g>
    <g>
      <polygon class="st1" points="970.37 304.54 860.71 304.49 787.21 204.29 747.51 247.2 747.39 304.49 653.6 304.51 653.84 128.66 653.51 .09 747.47 .08 747.51 131.72 810.45 60.13 863.9 0 972.54 .15 847.69 140.66 970.37 304.54"/>
      <g>
        <polygon class="st1" points="619.67 304.45 527.76 304.56 431.49 168.29 407.49 134.75 407.6 304.48 315.67 304.5 315.65 110.7 315.38 .09 410.14 .07 526.59 164.2 526.54 78.63 526.56 .1 619.32 .12 619.64 134.65 619.67 304.45"/>
        <path class="st1" d="M90.69,305.98c-42.09-11.42-73.92-40.19-85.59-82.45-3.62-13.12-4.73-26.1-5.1-40.15h90.3c-.79,15.77,3.77,31.08,15.98,40.97,16.64,13.48,40.38,14.13,58.44,3.22,13.4-8.96,19.52-22.42,20.98-38.57L185.43.06h95.45s-.13,191.29-.13,191.29c-2.61,56.94-38.51,100.53-93.11,115.03-31.82,8.45-65.23,8.2-96.95-.4Z"/>
      </g>
    </g>
    <g>
      <path class="st1" d="M1012.04,382.14c22.07,7.85,37.65,26.5,38.86,50.57l.61,82.12-257.38-.05c-12.31,0-22.32-7.26-29.25-16.27-8.22,9.14-20.23,16.59-33.8,16.6l-351.53.11c-8.93,0-16.05-4.73-21.52-10.78-6.08,5.74-13.69,10.7-22.63,10.7l-191.87.02c-9.78,0-18.38-3.59-26.88-7.19-15.87-8.84-25.24-24.11-27-42.42l-.06-59.18h53.66s.02,51.16.02,51.16c-.04,5.84,3.72,9.73,9.85,10.28l159.66.03c5.09,0,8.32-3.52,8.52-8.29v-131.86s56.8-.08,56.8-.08l-.02,131.93c-.13,4.6,2.93,8.28,8.11,8.28h331.54c6.42-.05,10.51-4.17,10.57-10.2l-.04-68.06,53.24.05v69.08c.11,4.35,3.48,9.02,8.71,9.02l207.93.02.11-22.08c.06-11.21-8.08-18.11-19.17-19.6l-129.72-.05.03-36.4,47.6-19.77-.12,8.45,92,.03c8.01,0,14.98,1.95,23.16,3.83Z"/>
      <path class="st1" d="M272.21,397.99l.37,19.77-89.47-.02.84-28.17,57.14-56.08,31.6.06-42.56,49.88,31.05.71c4.92.11,10.95,9.1,11.04,13.86Z"/>
      <rect class="st1" x="730.37" y="328.75" width="49.2" height="39.78" transform="translate(-.44 .96)"/>
      <rect class="st1" x="433.16" y="324.14" width="39.57" height="48.85" transform="translate(104.28 801.43) rotate(-89.99)"/>
    </g>
  </g>
  <rect class="st1" x="927.88" y="535.51" width="48.89" height="39.36" transform="translate(-.66 1.13)"/>
</svg>